<?xml version="1.0" encoding="iso-8859-1"?>
<!-- Generator: Adobe Illustrator 19.0.0, SVG Export Plug-In . SVG Version: 6.00 Build 0)  -->
<svg version="1.1" id="Layer_1" xmlns="http://www.w3.org/2000/svg" xmlns:xlink="http://www.w3.org/1999/xlink" x="0px" y="0px"
	 viewBox="0 0 512 512" style="enable-background:new 0 0 512 512;" xml:space="preserve">
<circle style="fill:#88C5CC;" cx="256" cy="256" r="256"/>
<path style="fill:#80B9BF;" d="M436.08,428.48c-0.508-1.388-1.052-2.752-1.656-4.084c-0.508-1.392-1.052-2.756-1.656-4.092
	c-0.508-1.392-1.048-2.752-1.656-4.084c-0.508-1.388-1.048-2.752-1.656-4.084c-0.492-1.36-1.024-2.696-1.612-4
	c-0.696-2.22-1.568-4.344-2.516-6.428c-0.504-1.388-1.052-2.752-1.656-4.084c-0.504-1.392-1.052-2.752-1.656-4.088
	c-0.504-1.388-1.048-2.752-1.656-4.084c-0.504-1.392-1.048-2.756-1.656-4.092c-0.504-1.388-1.048-2.752-1.652-4.084
	c-0.508-1.388-1.056-2.752-1.656-4.084c-0.5-1.376-1.044-2.736-1.64-4.056c-0.508-1.4-1.064-2.776-1.672-4.12
	c-0.508-1.388-1.052-2.752-1.656-4.088c-0.508-1.388-1.052-2.752-1.656-4.084c-0.508-1.388-1.048-2.752-1.656-4.088
	c-0.508-1.388-1.048-2.752-1.656-4.084c-0.508-1.392-1.048-2.752-1.656-4.084c-0.508-1.396-1.056-2.756-1.66-4.092
	c-0.5-1.376-1.036-2.728-1.636-4.056c-0.504-1.384-1.048-2.744-1.648-4.072c-0.688-2.2-1.552-4.316-2.496-6.388
	c-0.504-1.388-1.052-2.752-1.656-4.088c-0.504-1.388-1.052-2.752-1.66-4.084c-0.504-1.392-1.048-2.752-1.656-4.088
	c-0.5-1.388-1.048-2.752-1.656-4.088c-0.5-1.376-1.04-2.732-1.64-4.056c-0.508-1.4-1.056-2.772-1.664-4.116
	c-0.508-1.392-1.052-2.752-1.656-4.084c-0.508-1.392-1.056-2.756-1.656-4.092c-0.508-1.388-1.056-2.752-1.656-4.084
	c-0.508-1.388-1.056-2.752-1.66-4.088c-0.504-1.388-1.052-2.752-1.656-4.084c-0.5-1.376-1.036-2.736-1.64-4.056
	c-0.508-1.404-1.06-2.776-1.668-4.12c-0.504-1.388-1.048-2.752-1.656-4.088c-0.504-1.388-1.048-2.752-1.656-4.084
	c-0.504-1.392-1.052-2.752-1.656-4.084c-0.5-1.372-1.036-2.72-1.632-4.04c-0.692-2.2-1.556-4.32-2.5-6.392
	c-0.5-1.376-1.04-2.732-1.64-4.052c-0.508-1.4-1.056-2.776-1.664-4.124c-0.508-1.388-1.056-2.752-1.656-4.088
	c-0.508-1.388-1.056-2.752-1.656-4.084c-0.508-1.388-1.056-2.756-1.664-4.088c-0.5-1.392-1.048-2.756-1.656-4.092
	c-0.5-1.388-1.048-2.752-1.652-4.084c-0.504-1.392-1.052-2.756-1.656-4.088c-0.5-1.376-1.044-2.732-1.64-4.052
	c-0.508-1.4-1.06-2.776-1.668-4.12c-0.504-1.392-1.056-2.756-1.656-4.088c-0.508-1.388-1.056-2.752-1.656-4.088
	c-0.508-1.388-1.052-2.752-1.66-4.088c-0.504-1.388-1.048-2.752-1.656-4.084c-0.504-1.388-1.048-2.752-1.652-4.088
	c-0.492-1.36-1.028-2.7-1.616-4.008c-0.696-2.212-1.568-4.336-2.516-6.42c-0.5-1.388-1.048-2.752-1.656-4.084
	c-0.5-1.392-1.048-2.756-1.656-4.092c-0.5-1.388-1.048-2.752-1.656-4.084c-0.5-1.388-1.048-2.752-1.652-4.088
	c-0.504-1.388-1.052-2.752-1.656-4.084c-0.504-1.388-1.052-2.752-1.656-4.088c-0.5-1.376-1.044-2.732-1.64-4.056
	c-0.508-1.4-1.06-2.776-1.672-4.12c-0.504-1.392-1.052-2.756-1.656-4.092c-0.504-1.388-1.048-2.752-1.656-4.084
	c-0.504-1.388-1.048-2.752-1.656-4.088c-0.504-1.388-1.052-2.752-1.656-4.084c-0.504-1.388-1.052-2.752-1.652-4.088
	c-0.5-1.376-1.044-2.732-1.64-4.056c-0.508-1.4-1.06-2.776-1.672-4.12c-0.5-1.388-1.052-2.752-1.656-4.088
	c-0.508-1.388-1.052-2.756-1.656-4.088C300.772,91.38,280.228,76,256,76c-1.504,0-2.984-0.228-4.452-0.092
	C250.36,76,249.192,76,248.028,76C248.02,76,248,76,248,76v0.316c-28,3.892-48.004,27.308-48.004,55.524
	c0,4.872,0.652,9.584,1.82,14.092c0.144,0.636,0.248,1.28,0.412,1.908c1.04,4.612,2.632,9.016,4.752,13.132
	c1.028,3.616,2.416,7.088,4.116,10.372c1.016,3.556,2.388,6.968,4.064,10.2c1.02,3.544,2.384,6.952,4.056,10.176
	c0.032,0.116,0.072,0.228,0.1,0.344C215.244,192.428,212,195.836,212,200c0,1.28,0.332,2.476,0.876,3.552
	c-0.008,0.152-0.048,0.296-0.048,0.448c0,1.864,0.672,3.56,1.752,4.924c0.18,1.5,0.76,2.868,1.656,4
	c0.18,1.5,0.756,2.864,1.656,3.996c0.172,1.504,0.756,2.872,1.656,4.004c0.172,1.5,0.756,2.868,1.652,4
	c0.176,1.5,0.76,2.868,1.656,4c0.176,1.5,0.76,2.868,1.656,4c0.176,1.5,0.76,2.868,1.656,4c0.176,1.5,0.76,2.868,1.656,4
	c0.048,0.404,0.112,0.792,0.224,1.176C222.928,286.508,211.18,340.436,184,388h-4c-4.4,0-8,3.6-8,8c0,1.288,0.336,2.492,0.884,3.572
	c0.116,1.616,0.72,3.032,1.672,4.164c0.064,0.732,0.212,1.424,0.46,2.072c-1.82,1.468-3.016,3.688-3.016,6.2
	c0,1.26,0.324,2.44,0.852,3.512c0.048,1.584,0.54,3.144,1.376,4.488H164c-4.4,0-8,3.596-8,8c0,1.276,0.332,2.476,0.876,3.552
	c-0.008,0.152-0.048,0.296-0.048,0.448c0,1.864,0.672,3.56,1.752,4.924c0.18,1.5,0.76,2.868,1.656,4
	c0.18,1.5,0.756,2.864,1.656,3.992c0.172,1.508,0.756,2.876,1.656,4.008c0.172,1.5,0.756,2.868,1.652,4
	c0.176,1.5,0.76,2.868,1.656,4c0.176,1.5,0.76,2.868,1.656,4c0.176,1.5,0.76,2.868,1.656,4c0.176,1.5,0.76,2.868,1.656,4
	c0.176,1.5,0.76,2.868,1.656,4c0.176,1.5,0.752,2.864,1.652,3.992c0.176,1.508,0.756,2.876,1.656,4.008
	c0.176,1.5,0.756,2.868,1.656,4c0.172,1.5,0.756,2.868,1.656,4c0.172,1.5,0.756,2.868,1.656,4c0.172,1.5,0.756,2.868,1.656,4
	c0.172,1.5,0.756,2.868,1.656,4c0.048,0.396,0.188,0.752,0.288,1.124C207.808,508.484,231.488,512,256,512
	c71.608,0,136.32-29.436,182.78-76.832c-0.336-0.872-0.664-1.748-1.048-2.596C437.236,431.184,436.684,429.816,436.08,428.48z"/>
<path style="fill:#E6E6E6;" d="M280,164c-12,0-24,0-24,0s-12,0-24,0c0,36,0,140-48,224c36,0,72,0,72,0s36,0,72,0
	C280,304,280,200,280,164z"/>
<path style="fill:#CCCCCC;" d="M280,164c-5.788,0-11.564,0-16,0c0,36,0,140,48,224c5.256,0,10.616,0,16,0C280,304,280,200,280,164z"
	/>
<path style="fill:#E6E6E6;" d="M312,132c0,30.936-25.048,56-56,56c-30.92,0-56-25.064-56-56c0-30.94,25.08-56,56-56
	C286.952,76,312,101.06,312,132z"/>
<path style="fill:#CCCCCC;" d="M256,76c-2.728,0-5.384,0.26-7.996,0.636C275.148,80.524,296,103.784,296,132
	s-20.852,51.476-47.996,55.364C250.616,187.74,253.272,188,256,188c30.952,0,56-25.064,56-56C312,101.06,286.952,76,256,76z"/>
<path style="fill:#CC584C;" d="M292,184c0,4.4-3.6,8-8,8h-56c-4.4,0-8-3.6-8-8l0,0c0-4.4,3.6-8,8-8h56C288.4,176,292,179.6,292,184
	L292,184z"/>
<g>
	<path style="fill:#263740;" d="M300,200c0,4.4-3.6,8-8,8h-72c-4.4,0-8-3.6-8-8l0,0c0-4.4,3.6-8,8-8h72C296.4,192,300,195.6,300,200
		L300,200z"/>
	<path style="fill:#263740;" d="M340,396c0,4.4-3.6,8-8,8H180c-4.4,0-8-3.6-8-8l0,0c0-4.4,3.6-8,8-8h152
		C336.4,388,340,391.6,340,396L340,396z"/>
</g>
<path style="fill:#1E2C33;" d="M332,388h-16c4.4,0,8,3.6,8,8s-3.6,8-8,8h16c4.4,0,8-3.6,8-8S336.4,388,332,388z"/>
<path style="fill:#CC584C;" d="M340,412c0,4.4-3.6,8-8,8H180c-4.4,0-8-3.6-8-8l0,0c0-4.4,3.6-8,8-8h152C336.4,404,340,407.6,340,412
	L340,412z"/>
<path style="fill:#263740;" d="M356,428c0,4.4-3.6,8-8,8H164c-4.4,0-8-3.6-8-8l0,0c0-4.4,3.6-8,8-8h184C352.4,420,356,423.6,356,428
	L356,428z"/>
<path style="fill:#1E2C33;" d="M348,420h-16c4.4,0,8,3.6,8,8s-3.6,8-8,8h16c4.4,0,8-3.6,8-8S352.4,420,348,420z"/>
<path style="fill:#B34D43;" d="M332,404h-16c4.4,0,8,3.6,8,8s-3.6,8-8,8h16c4.4,0,8-3.6,8-8S336.4,404,332,404z"/>
<path style="fill:#1E2C33;" d="M292,192h-16c4.4,0,8,3.6,8,8s-3.6,8-8,8h16c4.4,0,8-3.6,8-8S296.4,192,292,192z"/>
<path style="fill:#B34D43;" d="M284,176h-16c4.4,0,8,3.6,8,8s-3.6,8-8,8h16c4.4,0,8-3.6,8-8S288.4,176,284,176z"/>
<g>
</g>
<g>
</g>
<g>
</g>
<g>
</g>
<g>
</g>
<g>
</g>
<g>
</g>
<g>
</g>
<g>
</g>
<g>
</g>
<g>
</g>
<g>
</g>
<g>
</g>
<g>
</g>
<g>
</g>
</svg>
